<?xml version="1.0" encoding="utf-8"?>
<!-- Generator: Adobe Illustrator 27.1.1, SVG Export Plug-In . SVG Version: 6.00 Build 0)  -->
<svg version="1.1" id="insta" xmlns="http://www.w3.org/2000/svg" xmlns:xlink="http://www.w3.org/1999/xlink" x="0px" y="0px"
	 viewBox="0 0 800 800" style="enable-background:new 0 0 800 800;" xml:space="preserve">
<style type="text/css">
	.st0{fill-rule:evenodd;clip-rule:evenodd;}
</style>
<g id="i-line">
	<g id="Dribbble-Light-Preview" transform="translate(-340.000000, -7439.000000)">
		<g id="icons" transform="translate(56.000000, 160.000000)">
			<path id="instagram-_x5B__x23_167_x5D_" class="st0" d="M521.1,7289.3c-64.2,2.9-119.9,18.6-164.8,63.4
				c-45.1,45-60.6,100.9-63.5,164.4c-1.8,39.7-12.4,339.3,18.3,417.9c20.6,53,61.3,93.8,114.8,114.5c25,9.7,53.5,16.3,95.3,18.2
				c349.6,15.8,479.1,7.2,533.8-132.7c9.7-24.9,16.4-53.4,18.2-95.1c16-350.4-2.6-426.4-63.5-487.3
				C961.2,7304.5,904.4,7271.7,521.1,7289.3 M524.3,7997.3c-38.3-1.7-59-8.1-72.9-13.5c-34.9-13.5-61-39.6-74.5-74.3
				c-23.3-59.7-15.6-343.3-13.5-389.2c2-45,11.1-86,42.9-117.8c39.3-39.2,90-58.3,435.3-42.8c45.1,2,86.2,11.1,118,42.8
				c39.3,39.2,58.7,90.3,42.9,434.3c-1.7,38.2-8.1,58.9-13.5,72.7C953.4,8000.6,871.7,8013.2,524.3,7997.3 M845.3,7469.5
				c0,25.9,21.1,47,47.1,47c26,0,47.1-21.1,47.1-47c0-25.9-21.1-47-47.1-47C866.4,7422.5,845.3,7443.6,845.3,7469.5 M481.3,7678.5
				c0,111,90.2,201.1,201.6,201.1s201.6-90,201.6-201.1c0-111-90.2-201-201.6-201S481.3,7567.5,481.3,7678.5 M552.1,7678.5
				c0-72,58.6-130.5,130.8-130.5c72.3,0,130.8,58.5,130.8,130.5c0,72.1-58.6,130.6-130.8,130.6
				C610.6,7809.1,552.1,7750.6,552.1,7678.5"/>
		</g>
	</g>
</g>
</svg>
